<mxfile host="65bd71144e" pages="1">
    <diagram id="RYLSIoxaraimkevxGFpl" name="流程图">
        <mxGraphModel dx="1165" dy="793" grid="0" gridSize="10" guides="1" tooltips="1" connect="1" arrows="1" fold="1" page="1" pageScale="1" pageWidth="827" pageHeight="1169" math="0" shadow="0">
            <root>
                <mxCell id="0"/>
                <mxCell id="1" parent="0"/>
                <mxCell id="22" value="数据字典" style="swimlane;html=1;childLayout=stackLayout;resizeParent=1;resizeParentMax=0;startSize=20;horizontal=0;horizontalStack=1;swimlaneFillColor=none;swimlaneLine=1;glass=0;connectable=1;allowArrows=1;" parent="1" vertex="1">
                    <mxGeometry x="60" y="70" width="485" height="650" as="geometry"/>
                </mxCell>
                <mxCell id="23" value="用户" style="swimlane;html=1;startSize=20;" parent="22" vertex="1">
                    <mxGeometry x="20" width="136" height="650" as="geometry">
                        <mxRectangle x="20" width="30" height="650" as="alternateBounds"/>
                    </mxGeometry>
                </mxCell>
                <mxCell id="30" value="开始" style="rounded=1;whiteSpace=wrap;html=1;glass=0;fillColor=#cdeb8b;strokeColor=#36393d;fontColor=#000000;" parent="23" vertex="1">
                    <mxGeometry x="20" y="40" width="80" height="30" as="geometry"/>
                </mxCell>
                <mxCell id="31" value="结束" style="rounded=1;whiteSpace=wrap;html=1;glass=0;fillColor=#cdeb8b;strokeColor=#36393d;fontColor=#000000;" parent="23" vertex="1">
                    <mxGeometry x="20" y="560" width="80" height="30" as="geometry"/>
                </mxCell>
                <mxCell id="24" value="系统" style="swimlane;html=1;startSize=20;" parent="22" vertex="1">
                    <mxGeometry x="156" width="190" height="650" as="geometry">
                        <mxRectangle x="140" width="30" height="480" as="alternateBounds"/>
                    </mxGeometry>
                </mxCell>
                <mxCell id="32" value="读取字典配置信息" style="rounded=0;whiteSpace=wrap;html=1;glass=0;fillColor=none;strokeColor=#36393d;fontColor=#000000;" parent="24" vertex="1">
                    <mxGeometry x="47.5" y="40" width="105" height="30" as="geometry"/>
                </mxCell>
                <mxCell id="34" value="初始化数据库连接" style="rounded=0;whiteSpace=wrap;html=1;glass=0;fillColor=none;strokeColor=#36393d;fontColor=#000000;" parent="24" vertex="1">
                    <mxGeometry x="47.5" y="90" width="105" height="30" as="geometry"/>
                </mxCell>
                <mxCell id="35" value="" style="edgeStyle=orthogonalEdgeStyle;rounded=0;orthogonalLoop=1;jettySize=auto;html=1;" parent="24" source="32" target="34" edge="1">
                    <mxGeometry relative="1" as="geometry"/>
                </mxCell>
                <mxCell id="38" value="清空/生成 目标目录" style="rounded=0;whiteSpace=wrap;html=1;glass=0;fillColor=#d0cee2;strokeColor=#56517e;" parent="24" vertex="1">
                    <mxGeometry x="47.5" y="140" width="105" height="30" as="geometry"/>
                </mxCell>
                <mxCell id="39" value="" style="edgeStyle=orthogonalEdgeStyle;rounded=0;orthogonalLoop=1;jettySize=auto;html=1;exitX=0.5;exitY=1;exitDx=0;exitDy=0;" parent="24" source="34" target="38" edge="1">
                    <mxGeometry relative="1" as="geometry">
                        <mxPoint x="100" y="140" as="sourcePoint"/>
                    </mxGeometry>
                </mxCell>
                <mxCell id="36" value="生成index.html" style="rounded=0;whiteSpace=wrap;html=1;glass=0;fillColor=none;strokeColor=#36393d;fontColor=#000000;" parent="24" vertex="1">
                    <mxGeometry x="47.5" y="190" width="105" height="30" as="geometry"/>
                </mxCell>
                <mxCell id="37" value="" style="edgeStyle=orthogonalEdgeStyle;rounded=0;orthogonalLoop=1;jettySize=auto;html=1;exitX=0.5;exitY=1;exitDx=0;exitDy=0;" parent="24" source="38" target="36" edge="1">
                    <mxGeometry relative="1" as="geometry"/>
                </mxCell>
                <mxCell id="42" value="拷贝脚本文件" style="rounded=0;whiteSpace=wrap;html=1;glass=0;fillColor=none;strokeColor=#36393d;fontColor=#000000;" parent="24" vertex="1">
                    <mxGeometry x="47.5" y="240" width="105" height="30" as="geometry"/>
                </mxCell>
                <mxCell id="43" value="" style="edgeStyle=orthogonalEdgeStyle;rounded=0;orthogonalLoop=1;jettySize=auto;html=1;" parent="24" source="36" target="42" edge="1">
                    <mxGeometry relative="1" as="geometry"/>
                </mxCell>
                <mxCell id="46" value="生成左树模块、实体索引" style="rounded=0;whiteSpace=wrap;html=1;glass=0;fillColor=none;strokeColor=#36393d;fontColor=#000000;" parent="24" vertex="1">
                    <mxGeometry x="48.125" y="290" width="103.75" height="30" as="geometry"/>
                </mxCell>
                <mxCell id="49" value="生成实体字典文件" style="rounded=0;whiteSpace=wrap;html=1;glass=0;fillColor=#60a917;strokeColor=#2D7600;fontColor=#ffffff;" parent="24" vertex="1">
                    <mxGeometry x="48.28" y="340" width="103.44" height="30" as="geometry"/>
                </mxCell>
                <mxCell id="50" value="" style="edgeStyle=orthogonalEdgeStyle;rounded=0;orthogonalLoop=1;jettySize=auto;html=1;" parent="24" source="46" target="49" edge="1">
                    <mxGeometry relative="1" as="geometry"/>
                </mxCell>
                <mxCell id="53" value="生成左树表索引" style="rounded=0;whiteSpace=wrap;html=1;glass=0;fillColor=none;strokeColor=#36393d;fontColor=#000000;" parent="24" vertex="1">
                    <mxGeometry x="51.565" y="390" width="96.87" height="30" as="geometry"/>
                </mxCell>
                <mxCell id="55" value="生成表字典文件" style="rounded=0;whiteSpace=wrap;html=1;glass=0;fillColor=#1ba1e2;strokeColor=#006EAF;fontColor=#ffffff;" parent="24" vertex="1">
                    <mxGeometry x="51.565" y="440" width="96.87" height="30" as="geometry"/>
                </mxCell>
                <mxCell id="56" value="" style="edgeStyle=orthogonalEdgeStyle;rounded=0;orthogonalLoop=1;jettySize=auto;html=1;" parent="24" source="53" target="55" edge="1">
                    <mxGeometry relative="1" as="geometry"/>
                </mxCell>
                <mxCell id="57" value="所有版本已生成字典" style="rhombus;whiteSpace=wrap;html=1;rounded=0;strokeColor=#b85450;fillColor=#f8cecc;glass=0;" parent="24" vertex="1">
                    <mxGeometry x="55" y="497" width="90" height="58" as="geometry"/>
                </mxCell>
                <mxCell id="58" value="" style="edgeStyle=orthogonalEdgeStyle;rounded=0;orthogonalLoop=1;jettySize=auto;html=1;entryX=0.5;entryY=0;entryDx=0;entryDy=0;" parent="24" source="55" target="57" edge="1">
                    <mxGeometry relative="1" as="geometry">
                        <mxPoint x="99" y="490" as="targetPoint"/>
                    </mxGeometry>
                </mxCell>
                <mxCell id="60" value="" style="edgeStyle=orthogonalEdgeStyle;rounded=0;orthogonalLoop=1;jettySize=auto;html=1;entryX=0;entryY=0.5;entryDx=0;entryDy=0;exitX=0;exitY=0.5;exitDx=0;exitDy=0;" parent="24" source="57" target="34" edge="1">
                    <mxGeometry relative="1" as="geometry">
                        <mxPoint x="155" y="110" as="targetPoint"/>
                        <Array as="points">
                            <mxPoint x="24" y="526"/>
                            <mxPoint x="24" y="105"/>
                        </Array>
                    </mxGeometry>
                </mxCell>
                <mxCell id="61" value="否" style="edgeLabel;html=1;align=center;verticalAlign=middle;resizable=0;points=[];" parent="60" vertex="1" connectable="0">
                    <mxGeometry x="-0.4462" y="2" relative="1" as="geometry">
                        <mxPoint y="-121" as="offset"/>
                    </mxGeometry>
                </mxCell>
                <mxCell id="25" value="数据库" style="swimlane;html=1;startSize=20;" parent="22" vertex="1">
                    <mxGeometry x="346" width="139" height="650" as="geometry"/>
                </mxCell>
                <mxCell id="44" value="查询元数据信息" style="rounded=0;whiteSpace=wrap;html=1;glass=0;fillColor=#ffe6cc;strokeColor=#d79b00;" parent="25" vertex="1">
                    <mxGeometry x="17.5" y="240" width="105" height="30" as="geometry"/>
                </mxCell>
                <mxCell id="51" value="查询所有表结构" style="rounded=0;whiteSpace=wrap;html=1;glass=0;fillColor=#b0e3e6;strokeColor=#0e8088;" parent="25" vertex="1">
                    <mxGeometry x="21.564999999999998" y="340" width="96.87" height="30" as="geometry"/>
                </mxCell>
                <mxCell id="33" value="" style="edgeStyle=orthogonalEdgeStyle;rounded=0;orthogonalLoop=1;jettySize=auto;html=1;" parent="22" source="30" target="32" edge="1">
                    <mxGeometry relative="1" as="geometry"/>
                </mxCell>
                <mxCell id="45" value="" style="edgeStyle=orthogonalEdgeStyle;rounded=0;orthogonalLoop=1;jettySize=auto;html=1;" parent="22" source="42" target="44" edge="1">
                    <mxGeometry relative="1" as="geometry"/>
                </mxCell>
                <mxCell id="47" value="" style="edgeStyle=orthogonalEdgeStyle;rounded=0;orthogonalLoop=1;jettySize=auto;html=1;" parent="22" source="44" target="46" edge="1">
                    <mxGeometry relative="1" as="geometry">
                        <Array as="points">
                            <mxPoint x="416" y="305"/>
                        </Array>
                    </mxGeometry>
                </mxCell>
                <mxCell id="52" value="" style="edgeStyle=orthogonalEdgeStyle;rounded=0;orthogonalLoop=1;jettySize=auto;html=1;" parent="22" source="49" target="51" edge="1">
                    <mxGeometry relative="1" as="geometry"/>
                </mxCell>
                <mxCell id="54" value="" style="edgeStyle=orthogonalEdgeStyle;rounded=0;orthogonalLoop=1;jettySize=auto;html=1;" parent="22" source="51" target="53" edge="1">
                    <mxGeometry relative="1" as="geometry">
                        <mxPoint x="360" y="405" as="sourcePoint"/>
                        <Array as="points">
                            <mxPoint x="420" y="405"/>
                        </Array>
                    </mxGeometry>
                </mxCell>
                <mxCell id="64" value="" style="edgeStyle=orthogonalEdgeStyle;rounded=0;orthogonalLoop=1;jettySize=auto;html=1;exitX=0.5;exitY=1;exitDx=0;exitDy=0;entryX=1;entryY=0.5;entryDx=0;entryDy=0;" parent="22" source="57" target="31" edge="1">
                    <mxGeometry relative="1" as="geometry">
                        <mxPoint x="207" y="550" as="sourcePoint"/>
                        <mxPoint x="120" y="600" as="targetPoint"/>
                        <Array as="points">
                            <mxPoint x="256" y="575"/>
                        </Array>
                    </mxGeometry>
                </mxCell>
                <mxCell id="67" value="是" style="edgeLabel;html=1;align=center;verticalAlign=middle;resizable=0;points=[];" parent="64" vertex="1" connectable="0">
                    <mxGeometry x="-0.3089" y="-3" relative="1" as="geometry">
                        <mxPoint x="-32" y="3" as="offset"/>
                    </mxGeometry>
                </mxCell>
            </root>
        </mxGraphModel>
    </diagram>
    <diagram id="k-vXs6BY-nUtxM6qNOfB" name="类图">
        <mxGraphModel dx="1689" dy="1150" grid="1" gridSize="10" guides="1" tooltips="1" connect="1" arrows="1" fold="1" page="1" pageScale="1" pageWidth="827" pageHeight="1169" math="0" shadow="0">
            <root>
                <mxCell id="Qq-xsXhBuLABkMN5XvxK-0"/>
                <mxCell id="Qq-xsXhBuLABkMN5XvxK-1" parent="Qq-xsXhBuLABkMN5XvxK-0"/>
            </root>
        </mxGraphModel>
    </diagram>
</mxfile>
